<svg xmlns="http://www.w3.org/2000/svg" version="1.1" xmlns:xlink="http://www.w3.org/1999/xlink" xmlns:svgjs="http://svgjs.dev/svgjs" width="2000" height="338" viewBox="0 0 2000 338"><g transform="matrix(1,0,0,1,-1.2120905241964692,-0.3127994001574166)"><svg viewBox="0 0 396 67" data-background-color="#636365" preserveAspectRatio="xMidYMid meet" height="338" width="2000" xmlns="http://www.w3.org/2000/svg" xmlns:xlink="http://www.w3.org/1999/xlink"><g id="tight-bounds" transform="matrix(1,0,0,1,0.23999392379090523,0.062004614824104465)"><svg viewBox="0 0 395.52 66.87599077035178" height="66.87599077035178" width="395.52"><g><svg viewBox="0 0 395.52 66.87599077035178" height="66.87599077035178" width="395.52"><g><svg viewBox="0 0 395.52 66.87599077035178" height="66.87599077035178" width="395.52"><g id="textblocktransform"><svg viewBox="0 0 395.52 66.87599077035178" height="66.87599077035178" width="395.52" id="textblock"><g><svg viewBox="0 0 395.52 66.87599077035178" height="66.87599077035178" width="395.52"><g transform="matrix(1,0,0,1,0,0)"><svg width="395.52" viewBox="4.05 -40.45 240.98487064448 40.75" height="66.87599077035178" data-palette-color="#3498db"><path d="M9.95-34.65L9.95-2.1Q9.95 0.3 7 0.3L7 0.3Q4.05 0.3 4.05-2.1L4.05-2.1 4.05-36.7Q4.05-37.85 4.7-38.78 5.35-39.7 7.2-39.7L7.2-39.7 24.2-39.7Q26-39.7 26.1-37.2L26.1-37.2Q26.2-34.65 24.2-34.65L24.2-34.65 9.95-34.65ZM22.75-20.65L22.75-20.65Q22.75-19.8 22.43-19.03 22.1-18.25 21.53-17.7 20.95-17.15 20.2-16.82 19.45-16.5 18.55-16.5L18.55-16.5Q16.85-16.5 15.65-17.7 14.45-18.9 14.45-20.65L14.45-20.65Q14.45-22.4 15.65-23.6 16.85-24.8 18.55-24.8L18.55-24.8Q19.45-24.8 20.2-24.48 20.95-24.15 21.53-23.58 22.1-23 22.43-22.25 22.75-21.5 22.75-20.65ZM39.1-30.1L47.1-30.1Q48.4-30.1 49.77-29.55 51.15-29 52.45-28.15L52.45-28.15 52.4-28.15Q53.7-27.2 54.4-25.68 55.1-24.15 55.1-22.15L55.1-22.15 55.1-7.95Q55.1-3.85 52.4-1.9L52.4-1.9Q49.75 0 47.1 0L47.1 0 39.1 0Q37.8 0 36.45-0.45 35.1-0.9 33.8-1.9L33.8-1.9Q31.1-3.8 31.1-7.95L31.1-7.95 31.1-22.15Q31.1-24.15 31.8-25.68 32.5-27.2 33.8-28.15L33.8-28.15 33.75-28.15Q35-29 36.4-29.55 37.8-30.1 39.1-30.1L39.1-30.1ZM40-4.7L46.2-4.7Q48.05-4.7 48.82-5.75 49.6-6.8 49.6-8L49.6-8 49.6-22.1Q49.6-23.35 48.82-24.38 48.05-25.4 46.2-25.4L46.2-25.4 40-25.4Q38.15-25.4 37.37-24.38 36.6-23.35 36.6-22.1L36.6-22.1 36.6-8Q36.6-6.8 37.37-5.75 38.15-4.7 40-4.7L40-4.7ZM72.09-25.4L67.94-25.4 67.94-7.2Q67.94-5.9 68.5-5.2 69.05-4.5 70.84-4.5L70.84-4.5 72.14-4.5Q74.09-4.5 74-2.2L74-2.2Q74 0.15 72.14 0.15L72.14 0.15 70.5 0.15Q68.89 0.15 67.5-0.28 66.09-0.7 64.8-1.5L64.8-1.5 64.8-1.45Q62.34-3.05 62.34-7.15L62.34-7.15 62.34-25.4 60.39-25.4Q58.59-25.4 58.49-27.75L58.49-27.75Q58.49-30.1 60.39-30.1L60.39-30.1 62.34-30.1 62.34-35.45Q62.34-37.85 65.19-37.85L65.19-37.85Q67.94-37.85 67.94-35.45L67.94-35.45 67.94-30.1 72.09-30.1Q74.05-30.1 73.94-27.75L73.94-27.75Q73.94-25.4 72.09-25.4L72.09-25.4ZM86.34-30.1L94.34-30.1Q95.64-30.1 97.02-29.55 98.39-29 99.69-28.15L99.69-28.15 99.64-28.15Q100.94-27.2 101.64-25.68 102.34-24.15 102.34-22.15L102.34-22.15 102.34-7.95Q102.34-3.85 99.64-1.9L99.64-1.9Q96.99 0 94.34 0L94.34 0 86.34 0Q85.04 0 83.69-0.45 82.34-0.9 81.04-1.9L81.04-1.9Q78.34-3.8 78.34-7.95L78.34-7.95 78.34-22.15Q78.34-24.15 79.04-25.68 79.74-27.2 81.04-28.15L81.04-28.15 80.99-28.15Q82.24-29 83.64-29.55 85.04-30.1 86.34-30.1L86.34-30.1ZM87.24-4.7L93.44-4.7Q95.29-4.7 96.07-5.75 96.84-6.8 96.84-8L96.84-8 96.84-22.1Q96.84-23.35 96.07-24.38 95.29-25.4 93.44-25.4L93.44-25.4 87.24-25.4Q85.39-25.4 84.62-24.38 83.84-23.35 83.84-22.1L83.84-22.1 83.84-8Q83.84-6.8 84.62-5.75 85.39-4.7 87.24-4.7L87.24-4.7ZM115.59-25.4L115.59-2.1Q115.59 0.3 112.79 0.3L112.79 0.3Q110.04 0.3 110.04-2.1L110.04-2.1 110.04-25.4 107.64-25.4Q105.84-25.4 105.74-27.75L105.74-27.75Q105.74-30.1 107.64-30.1L107.64-30.1 110.04-30.1 110.04-32.5Q110.04-34.55 110.62-35.98 111.19-37.4 112.49-38.15L112.49-38.15 112.49-38.1Q113.79-38.9 115.17-39.35 116.54-39.8 118.09-39.8L118.09-39.8 119.29-39.8Q121.14-39.8 121.14-37.45L121.14-37.45Q121.24-35.1 119.29-35.1L119.29-35.1 118.49-35.1Q117.54-35.1 116.97-34.93 116.39-34.75 116.09-34.4 115.79-34.05 115.69-33.55 115.59-33.05 115.59-32.45L115.59-32.45 115.59-30.1 119.34-30.1Q121.29-30.1 121.19-27.75L121.19-27.75Q121.19-25.4 119.34-25.4L119.34-25.4 115.59-25.4ZM131.09-27.9L131.09-2.1Q131.09 0.3 128.34 0.3L128.34 0.3Q125.54 0.3 125.54-2.1L125.54-2.1 125.54-27.9Q125.54-30.3 128.34-30.3L128.34-30.3Q131.09-30.3 131.09-27.9L131.09-27.9ZM132.14-36.6L132.14-36.6Q132.14-35 131.04-33.9 129.94-32.8 128.34-32.8L128.34-32.8Q126.74-32.8 125.61-33.9 124.49-35 124.49-36.6L124.49-36.6Q124.49-38.25 125.61-39.35 126.74-40.45 128.34-40.45L128.34-40.45Q129.94-40.45 131.04-39.35 132.14-38.25 132.14-36.6ZM143.54-21.75L143.54-2.1Q143.54 0.3 140.79 0.3L140.79 0.3Q138.04 0.3 138.04-2.1L138.04-2.1 138.04-22.2Q138.04-24.25 138.69-25.75 139.34-27.25 140.74-28.2L140.74-28.2Q143.39-30.1 146.04-30.1L146.04-30.1 154.09-30.1Q156.64-30.1 159.39-28.2L159.39-28.2Q162.09-26.3 162.09-22.2L162.09-22.2 162.09-2.1Q162.09 0.3 159.34 0.3L159.34 0.3Q156.59 0.3 156.59-2.1L156.59-2.1 156.59-21.75Q156.59-23.05 155.79-24.25L155.79-24.25 155.84-24.2Q155.19-25.4 153.19-25.4L153.19-25.4 146.94-25.4Q144.89-25.4 144.24-24.2L144.24-24.2Q143.54-23.15 143.54-21.75L143.54-21.75ZM187.08-1.75L187.08-25.4 177.43-25.4Q175.38-25.4 174.73-24.2L174.73-24.2Q174.03-23.15 174.03-21.75L174.03-21.75 174.03-7.35Q174.03-6.05 174.83-5.38 175.63-4.7 177.48-4.7L177.48-4.7 182.63-4.7Q184.43-4.7 184.43-2.35L184.43-2.35Q184.43-1.35 184.01-0.68 183.58 0 182.63 0L182.63 0 176.58 0Q173.43 0 170.98-1.6L170.98-1.6Q168.53-3.1 168.53-7.3L168.53-7.3 168.53-22.2Q168.53-24.25 169.18-25.75 169.83-27.25 171.23-28.2L171.23-28.2Q173.88-30.1 176.53-30.1L176.53-30.1 187.08-30.1 187.08-37.6Q187.08-40 189.83-40L189.83-40Q192.58-40 192.58-37.6L192.58-37.6 192.58-2.1Q192.58 0.3 189.83 0.3L189.83 0.3Q188.78 0.3 187.93-0.08 187.08-0.45 187.08-1.75L187.08-1.75ZM204.68-22.15L204.68-8Q204.68-6.8 205.46-5.75 206.23-4.7 208.08-4.7L208.08-4.7 214.33-4.7Q216.18-4.7 216.96-5.63 217.73-6.55 217.73-7.75L217.73-7.75 217.73-8.3Q217.73-10.65 220.48-10.65L220.48-10.65Q223.23-10.65 223.23-8.3L223.23-8.3 223.23-7.7Q223.23-5.6 222.56-4.25 221.88-2.9 220.53-1.9L220.53-1.9Q217.88 0 215.23 0L215.23 0 206.83 0Q204.18 0 201.68-1.9L201.68-1.9Q200.48-2.9 199.83-4.42 199.18-5.95 199.18-7.95L199.18-7.95 199.18-22.2Q199.18-26.25 201.68-28.2L201.68-28.2Q202.93-29.1 204.26-29.63 205.58-30.15 206.83-30.15L206.83-30.15 215.23-30.15Q216.43-30.15 217.88-29.68 219.33-29.2 220.58-28.4L220.58-28.4Q221.78-27.55 222.51-26.05 223.23-24.55 223.23-22.5L223.23-22.5 223.23-15.75Q223.23-14.6 222.56-13.7 221.88-12.8 220.08-12.8L220.08-12.8 209.28-12.8Q207.48-12.8 207.38-15.15L207.38-15.15Q207.38-17.5 209.28-17.5L209.28-17.5 217.78-17.5 217.73-22.15Q217.73-23.4 216.96-24.43 216.18-25.45 214.33-25.45L214.33-25.45 208.08-25.45Q206.23-25.45 205.46-24.43 204.68-23.4 204.68-22.15L204.68-22.15ZM234.98-22.75L234.98-2.1Q234.98 0.3 232.23 0.3L232.23 0.3Q229.38 0.3 229.38-2.1L229.38-2.1 229.38-22.8Q229.38-26.9 231.83-28.5L231.83-28.5Q234.28-30.1 237.48-30.1L237.48-30.1 243.18-30.1Q245.03-30.1 245.03-27.75L245.03-27.75Q245.13-25.4 243.18-25.4L243.18-25.4 237.88-25.4Q236.08-25.4 235.53-24.7 234.98-24 234.98-22.75L234.98-22.75Z" opacity="1" transform="matrix(1,0,0,1,0,0)" fill="#3498db" class="wordmark-text-0" data-fill-palette-color="primary" id="text-0"></path></svg></g></svg></g></svg></g></svg></g></svg></g><defs></defs></svg><rect width="395.52" height="66.87599077035178" fill="none" stroke="none" visibility="hidden"></rect></g></svg></g></svg>